<svg xmlns="http://www.w3.org/2000/svg" width="20" height="20" viewBox="0 0 20 20" fill="none">
  <path fill-rule="evenodd" clip-rule="evenodd" d="M0.75 4.25C0.75 1.62479 0.778109 0.75 4.25 0.75C7.72189 0.75 7.75 1.62479 7.75 4.25C7.75 6.87521 7.76107 7.75 4.25 7.75C0.738927 7.75 0.75 6.87521 0.75 4.25Z" stroke="#1A162E" stroke-width="1.5" stroke-linecap="round" stroke-linejoin="round"/>
  <path fill-rule="evenodd" clip-rule="evenodd" d="M11.75 4.25C11.75 1.62479 11.7781 0.75 15.25 0.75C18.7219 0.75 18.75 1.62479 18.75 4.25C18.75 6.87521 18.7611 7.75 15.25 7.75C11.7389 7.75 11.75 6.87521 11.75 4.25Z" stroke="#1A162E" stroke-width="1.5" stroke-linecap="round" stroke-linejoin="round"/>
  <path fill-rule="evenodd" clip-rule="evenodd" d="M0.75 15.25C0.75 12.6248 0.778109 11.75 4.25 11.75C7.72189 11.75 7.75 12.6248 7.75 15.25C7.75 17.8752 7.76107 18.75 4.25 18.75C0.738927 18.75 0.75 17.8752 0.75 15.25Z" stroke="#1A162E" stroke-width="1.5" stroke-linecap="round" stroke-linejoin="round"/>
  <path fill-rule="evenodd" clip-rule="evenodd" d="M11.75 15.25C11.75 12.6248 11.7781 11.75 15.25 11.75C18.7219 11.75 18.75 12.6248 18.75 15.25C18.75 17.8752 18.7611 18.75 15.25 18.75C11.7389 18.75 11.75 17.8752 11.75 15.25Z" stroke="#1A162E" stroke-width="1.5" stroke-linecap="round" stroke-linejoin="round"/>
</svg>