<svg xmlns="http://www.w3.org/2000/svg" width="22" height="22" viewBox="0 0 22 22" fill="none">
  <path fill-rule="evenodd" clip-rule="evenodd" d="M15.1783 16.3392C12.1731 16.3901 9.22303 16.388 6.32275 16.3392C3.1035 16.3392 0.75 14.043 0.75 10.8879V6.23832C0.75 3.08322 3.1035 0.786999 6.32275 0.786999C9.23893 0.737149 12.1911 0.738188 15.1783 0.786999C18.3976 0.786999 20.75 3.08426 20.75 6.23832V10.8879C20.75 14.043 18.3976 16.3392 15.1783 16.3392Z" stroke="#1A162E" stroke-width="1.5" stroke-linecap="round" stroke-linejoin="round"/>
  <path fill-rule="evenodd" clip-rule="evenodd" d="M13.75 8.74514C13.75 7.93401 9.59253 5.33912 9.12091 5.8057C8.6493 6.27228 8.60395 11.174 9.12091 11.6846C9.63788 12.1969 13.75 9.55627 13.75 8.74514Z" stroke="#1A162E" stroke-width="1.5" stroke-linecap="round" stroke-linejoin="round"/>
  <path d="M10.75 16.75V20.75H6.75H14.75" stroke="#1A162E" stroke-width="1.5"/>
</svg>