<svg xmlns="http://www.w3.org/2000/svg" width="20" height="19" viewBox="0 0 20 19" fill="none">
  <path fill-rule="evenodd" clip-rule="evenodd" d="M10.8562 1.42701L12.6836 5.07776C12.8627 5.43616 13.2084 5.68467 13.6093 5.74218L17.6973 6.33062C18.7073 6.47644 19.1092 7.70055 18.3783 8.40194L15.4221 11.2424C15.1316 11.5218 14.9994 11.9233 15.0681 12.3176L15.7658 16.3278C15.9376 17.3198 14.8817 18.0767 13.9789 17.6074L10.3252 15.7127C9.96697 15.5268 9.53797 15.5268 9.17874 15.7127L5.52496 17.6074C4.62218 18.0767 3.56635 17.3198 3.7392 16.3278L4.4358 12.3176C4.50452 11.9233 4.37228 11.5218 4.08177 11.2424L1.12563 8.40194C0.394668 7.70055 0.796595 6.47644 1.80662 6.33062L5.8946 5.74218C6.29549 5.68467 6.64223 5.43616 6.82133 5.07776L8.6477 1.42701C9.0996 0.524331 10.4043 0.524331 10.8562 1.42701Z" stroke="#1A162E" stroke-width="1.5" stroke-linecap="round" stroke-linejoin="round"/>
</svg>