<svg xmlns="http://www.w3.org/2000/svg" width="19" height="19" viewBox="0 0 19 19" fill="none">
  <path d="M8.81249 2.625C8.50178 2.625 8.25 2.87679 8.25 3.18749V8.81241C8.25 9.12312 8.50179 9.3749 8.81249 9.3749C9.1232 9.3749 9.37498 9.12311 9.37498 8.81241V3.18749C9.37498 2.87678 9.1232 2.625 8.81249 2.625Z" fill="#1A162E"/>
  <path d="M6.56249 12.375C6.25178 12.375 6 12.6268 6 12.9375V16.3125C6 16.6232 6.25179 16.875 6.56249 16.875C6.8732 16.875 7.12498 16.6232 7.12498 16.3125V12.9375C7.12498 12.6268 6.8732 12.375 6.56249 12.375Z" fill="#1A162E"/>
  <path d="M18.1874 17.6251H13.7865C14.0784 17.2042 14.2501 16.6937 14.2501 16.1438V12.7313C14.2501 11.4151 13.2692 10.3244 12.0001 10.15V2.62498C12.0001 1.17761 10.8224 0 9.37509 0C7.92775 0 6.7501 1.17765 6.7501 2.62498V10.15C5.48098 10.3243 4.5001 11.4151 4.5001 12.7313V16.1438C4.5001 16.6937 4.6718 17.2042 4.96375 17.6251H0.562491C0.251777 17.6251 0 17.8769 0 18.1876C0 18.4983 0.251787 18.7501 0.562491 18.7501H18.1874C18.4981 18.7501 18.7499 18.4983 18.7499 18.1876C18.7499 17.8769 18.4981 17.6251 18.1874 17.6251H18.1874ZM7.87498 2.62509C7.87498 1.79794 8.54784 1.12509 9.37498 1.12509C10.2021 1.12509 10.875 1.79794 10.875 2.62509V10.1251H7.87498V2.62509ZM7.10623 17.6251C6.28954 17.6251 5.62498 16.9605 5.62498 16.1438V12.7313C5.62498 11.9147 6.28954 11.2501 7.10623 11.2501H11.6436C12.4603 11.2501 13.1248 11.9147 13.1248 12.7313V16.1438C13.1248 16.9605 12.4603 17.6251 11.6436 17.6251H7.10623Z" fill="#1A162E"/>
</svg>